# xmcd
#
# Track frame offsets: 
#        183
#        19723
#        61058
#        82375
#        100183
#        116168
#        139748
#        161250
#        189735
#        206988
#        227075
#        249543
#        275643
#        299145
#
# Disc length: 4285 seconds
#
# Revision: 8
# Processed by: cddbd v1.5.2PL0 Copyright (c) Steve Scherf et al.
# Submitted via: ExactAudioCopyFreeDBPlugin 1.0
#
DISCID=d810bb0e
DTITLE=Various Artist - I Love The Blues CD2
DYEAR=1992
DGENRE=Blues
TTITLE0=The Robert Cray Band - Right Next Door (Because Of Me)
TTITLE1=Stevie Ray Vaughan and Double Trouble - Tin Pin Alley
TTITLE2=Tom Waits - Heartattack And Vine
TTITLE3=New Legend - I'll Be Strong
TTITLE4=Johnny Crash - Baby's Like A Piano
TTITLE5=The Black Crowes - Sister Luck
TTITLE6=Cinderella - Shelter Me
TTITLE7=Johnny Winter - Life Is Hard
TTITLE8=Robert Ward and Black Allstars - Trying My Best (Not To Never Do
TTITLE8=Wrong)
TTITLE9=The Quireboys - Whippin' Boy
TTITLE10=John Campbell - Wild Streak
TTITLE11=Ry Cooder - That's The Way Love Turned Out For Me
TTITLE12=Brendan Croker - What It Takes
TTITLE13=Blue Blot - Bridge To Your Heart
EXTD=
EXTT0=The Robert Cray Band
EXTT1=Stevie Ray Vaughan And Double Trouble
EXTT2=Tom Waits
EXTT3=New Legend
EXTT4=Johnny Crash
EXTT5=The Black Crowes
EXTT6=Cinderella
EXTT7=Johnny Winter
EXTT8=Robert Ward And The Black Top All-Stars
EXTT9=The Quireboys
EXTT10=John Campbell
EXTT11=Ry Cooder
EXTT12=Brendan Croker
EXTT13=Blue Blot
PLAYORDER=
